<svg width="200" height="60" viewBox="0 0 200 60" fill="none" xmlns="http://www.w3.org/2000/svg">
  <!-- Green background rounded square -->
  <rect x="8" y="14" width="32" height="32" rx="6" fill="#059669"/>

  <!-- Sprout icon (white) -->
  <path d="M24 38C21.2386 38 19 35.7614 19 33C19 30.2386 21.2386 28 24 28M24 38C26.7614 38 29 35.7614 29 33C29 30.2386 26.7614 28 24 28M24 38V42M24 28V24C24 23.4477 24.4477 23 25 23C25.5523 23 26 23.4477 26 24V26C26 26.5523 26.4477 27 27 27C27.5523 27 28 26.4477 28 26V24C28 23.4477 28.4477 23 29 23C29.5523 23 30 23.4477 30 24V26C30 27.1046 29.1046 28 28 28" stroke="white" stroke-width="2" stroke-linecap="round" stroke-linejoin="round"/>

  <!-- GreenLine AI text -->
  <text x="50" y="36" font-family="system-ui, -apple-system, sans-serif" font-size="20" font-weight="700" fill="#0f172a">GreenLine AI</text>
</svg>
